<?xml version="1.0" encoding="utf-8"?>
<!-- Generator: Adobe Illustrator 19.1.0, SVG Export Plug-In . SVG Version: 6.00 Build 0)  -->
<svg version="1.1" id="Capa_1" xmlns="http://www.w3.org/2000/svg" xmlns:xlink="http://www.w3.org/1999/xlink" x="0px" y="0px"
	 viewBox="0 0 71.2 65.9" style="enable-background:new 0 0 71.2 65.9;" xml:space="preserve">
<style type="text/css">
	.st0{fill:#4EAA73;}
</style>
<g>
	<path class="st0" d="M34.6,5.6c0.7-1.5,1.9-1.5,2.7,0L44.3,20c0.7,1.5,2.7,2.9,4.3,3.1l15.9,2.3c1.6,0.2,2,1.4,0.8,2.5L53.8,39.1
		c-1.2,1.2-1.9,3.4-1.6,5.1L54.9,60c0.3,1.6-0.7,2.3-2.1,1.6l-14.2-7.5c-1.5-0.8-3.9-0.8-5.3,0l-14.2,7.5c-1.5,0.8-2.4,0.1-2.1-1.6
		l2.7-15.8c0.3-1.6-0.5-3.9-1.6-5.1L6.5,27.9c-1.2-1.2-0.8-2.3,0.8-2.5l15.9-2.3c1.6-0.2,3.6-1.6,4.3-3.1L34.6,5.6z"/>
</g>
</svg>
