<?xml version="1.0" encoding="utf-8"?>
<!-- Generator: Adobe Illustrator 19.1.0, SVG Export Plug-In . SVG Version: 6.00 Build 0)  -->
<svg version="1.1" id="Capa_1" xmlns="http://www.w3.org/2000/svg" xmlns:xlink="http://www.w3.org/1999/xlink" x="0px" y="0px"
	 viewBox="0 0 71.2 65.9" style="enable-background:new 0 0 71.2 65.9;" xml:space="preserve">
<style type="text/css">
	.st0{fill:#FFFFFF;stroke:#BA1825;stroke-miterlimit:10;}
	.st1{fill:#BA1825;}
</style>
<g>
	<circle class="st0" cx="35.6" cy="32.9" r="30"/>
	<g>
		<path class="st1" d="M50.8,17.7c-1.2-1.2-3.1-1.2-4.2,0l-8.8,8.8c-1.2,1.2-3.1,1.2-4.2,0l-8.8-8.8c-1.2-1.2-3.1-1.2-4.2,0
			c-1.2,1.2-1.2,3.1,0,4.2l8.8,8.8c1.2,1.2,1.2,3.1,0,4.2l-8.8,8.8c-1.2,1.2-1.2,3.1,0,4.2c1.2,1.2,3.1,1.2,4.2,0l8.8-8.8
			c1.2-1.2,3.1-1.2,4.2,0l8.8,8.8c1.2,1.2,3.1,1.2,4.2,0c1.2-1.2,1.2-3.1,0-4.2L42,35.1c-1.2-1.2-1.2-3.1,0-4.2l8.8-8.8
			C52,20.8,52,18.9,50.8,17.7z"/>
	</g>
</g>
</svg>
