<?xml version="1.0" encoding="utf-8"?>
<!-- Generator: Adobe Illustrator 19.1.0, SVG Export Plug-In . SVG Version: 6.00 Build 0)  -->
<svg version="1.1" id="Capa_1" xmlns="http://www.w3.org/2000/svg" xmlns:xlink="http://www.w3.org/1999/xlink" x="0px" y="0px"
	 viewBox="0 0 145.3 137.9" style="enable-background:new 0 0 145.3 137.9;" xml:space="preserve">
<style type="text/css">
	.st0{fill:none;stroke:#FFFFFF;stroke-miterlimit:10;}
	.st1{fill:#FFFFFF;}
</style>
<path class="st0" d="M90.9,52.7c0.3-1.8,0.4-3.6,0.4-5.4c0-20.9-17-37.9-37.9-37.9c-20.9,0-37.9,17-37.9,37.9s17,37.9,37.9,37.9
	c0.4,0,0.7,0,1.1,0C57,67.2,72.3,53.3,90.9,52.7z"/>
<path class="st1" d="M77.6,29.6c1-1.3,0.8-3.2-0.6-4.2l-1.2-1c-1.3-1-3.2-0.7-4.2,0.6L46.9,57.2c-1,1.3-2.8,1.4-3.9,0.3l-7.2-7.2
	c-1.2-1.2-3.1-1.2-4.2,0l-1.1,1.1c-1.2,1.2-1.2,3.1,0,4.2l13.2,13.2c1.2,1.2,2.9,1.1,4-0.3L77.6,29.6z"/>
<circle class="st0" cx="92" cy="90.6" r="37.9"/>
<path class="st1" d="M110.6,70.9c-1.2-1.2-3.1-1.2-4.2,0L94.1,83.1c-1.2,1.2-3.1,1.2-4.2,0L77.6,70.9c-1.2-1.2-3.1-1.2-4.2,0
	L72.2,72c-1.2,1.2-1.2,3.1,0,4.2l12.3,12.3c1.2,1.2,1.2,3.1,0,4.2L72.2,105c-1.2,1.2-1.2,3.1,0,4.2l1.1,1.1c1.2,1.2,3.1,1.2,4.2,0
	l12.3-12.3c1.2-1.2,3.1-1.2,4.2,0l12.3,12.3c1.2,1.2,3.1,1.2,4.2,0l1.1-1.1c1.2-1.2,1.2-3.1,0-4.2L99.4,92.7c-1.2-1.2-1.2-3.1,0-4.2
	l12.3-12.3c1.2-1.2,1.2-3.1,0-4.2L110.6,70.9z"/>
</svg>
