<?xml version="1.0" encoding="utf-8"?>
<!-- Generator: Adobe Illustrator 19.1.0, SVG Export Plug-In . SVG Version: 6.00 Build 0)  -->
<svg version="1.1" id="Capa_1" xmlns="http://www.w3.org/2000/svg" xmlns:xlink="http://www.w3.org/1999/xlink" x="0px" y="0px"
	 viewBox="0 0 823.2 137.9" style="enable-background:new 0 0 823.2 137.9;" xml:space="preserve">
<style type="text/css">
	.st0{fill:#FFFFFF;}
	.st1{fill:#FFFFFF;stroke:#FFFFFF;stroke-miterlimit:10;}
</style>
<g>
	<g>
		<path class="st0" d="M731.2,86.2c-21.4,0-38.9-17.4-38.9-38.9s17.4-38.9,38.9-38.9s38.9,17.4,38.9,38.9c0,1.8-0.1,3.7-0.4,5.5
			l-0.1,0.8l-0.8,0c-18,0.5-32.9,13.8-35.4,31.6l-0.1,0.8l-1.2,0C731.8,86.2,731.5,86.2,731.2,86.2z M731.2,10.5
			c-20.3,0-36.9,16.5-36.9,36.9s16.5,36.9,36.9,36.9c0.1,0,0.2,0,0.2,0c3-18.1,18.1-31.5,36.4-32.4c0.2-1.5,0.3-3,0.3-4.4
			C768.1,27,751.6,10.5,731.2,10.5z"/>
	</g>
	<path class="st1" d="M755.4,29.6c1-1.3,0.8-3.2-0.6-4.2l-1.2-1c-1.3-1-3.2-0.7-4.2,0.6l-24.7,32.3c-1,1.3-2.8,1.4-3.9,0.3l-7.2-7.2
		c-1.2-1.2-3.1-1.2-4.2,0l-1.1,1.1c-1.2,1.2-1.2,3.1,0,4.2l13.2,13.2c1.2,1.2,2.9,1.1,4-0.3L755.4,29.6z"/>
	<g>
		<path class="st0" d="M769.8,129.5c-21.4,0-38.9-17.4-38.9-38.9s17.4-38.9,38.9-38.9s38.9,17.4,38.9,38.9S791.3,129.5,769.8,129.5z
			 M769.8,53.7c-20.3,0-36.9,16.5-36.9,36.9c0,20.3,16.5,36.9,36.9,36.9c20.3,0,36.9-16.5,36.9-36.9
			C806.7,70.3,790.2,53.7,769.8,53.7z"/>
	</g>
	<path class="st1" d="M788.4,70.9c-1.2-1.2-3.1-1.2-4.2,0l-12.3,12.3c-1.2,1.2-3.1,1.2-4.2,0l-12.3-12.3c-1.2-1.2-3.1-1.2-4.2,0
		l-1.1,1.1c-1.2,1.2-1.2,3.1,0,4.2l12.3,12.3c1.2,1.2,1.2,3.1,0,4.2L750.1,105c-1.2,1.2-1.2,3.1,0,4.2l1.1,1.1
		c1.2,1.2,3.1,1.2,4.2,0l12.3-12.3c1.2-1.2,3.1-1.2,4.2,0l12.3,12.3c1.2,1.2,3.1,1.2,4.2,0l1.1-1.1c1.2-1.2,1.2-3.1,0-4.2
		l-12.3-12.3c-1.2-1.2-1.2-3.1,0-4.2l12.3-12.3c1.2-1.2,1.2-3.1,0-4.2L788.4,70.9z"/>
</g>
<g>
	<g>
		<path class="st0" d="M33.2,38.4l0.4-0.9c2.9,0,5.9,0,8.8,0.1h1.8c0.5,0,1.1,0,1.8-0.1c2.4-0.1,6.6-0.2,12.8-0.2c1.2,0,2.4,0,3.6,0
			c1.2,0,2.3,0,3.4,0.1c0.2,0.1,0.4,0.3,0.5,0.5L66,38.8c-0.2,0.4-0.8,0.5-1.6,0.5H64c-1,0-2.7,0-5,0.2c-2.3,0.2-3.8,0.6-4.6,1.1
			c-0.5,0.4-0.7,0.9-0.7,1.6c0,1.4,0.6,3.5,1.8,6.4l8.3,19.2l2.9,6.4c2.8,6.7,5.5,13.6,8.3,20.6c0.3,0.8,0.6,1.4,0.8,2.1l3.6-8.9
			c1.9-4.5,3.8-9.3,5.7-14.3l3.7-10.2c0.1-0.2,0.3-0.9,0.6-2.2c3.5-9.6,5.3-15.7,5.3-18.2c0-0.5-0.2-1.1-0.7-1.7
			c-0.5-0.6-1.3-1-2.4-1.4c-0.4-0.1-1.8-0.4-4.2-0.7l-4-0.5c-0.3-0.4-0.5-0.7-0.5-0.9l0.2-0.4l17.6-0.2h5.8c2,0,3.3,0.1,4,0.4
			l0.1,0.4c0,0.3-0.1,0.7-0.3,1.1c-0.9,0.3-1.7,0.5-2.4,0.5c-3,0.4-4.9,0.8-5.7,1.3c-0.7,0.5-1.5,1.5-2.3,3.1L85.6,79.5
			c-4.4,10.6-7.6,18.8-9.5,24.7l-1.6,4.7c-0.5,0.3-0.9,0.4-1.2,0.4c-0.4,0-0.9-0.1-1.4-0.2c-4.3-11.1-7.8-19.8-10.5-25.8L44.8,45.7
			c-1.2-2.2-2.1-3.6-2.7-4c-0.6-0.5-2.7-1.1-6.3-1.9c-1.3-0.3-2-0.5-2.1-0.5C33.5,39,33.3,38.7,33.2,38.4z"/>
		<path class="st0" d="M111.2,105.7c0.5-0.4,1.2-0.6,2.1-0.7c3.3-0.5,5.4-1.1,6.2-1.8c0.4-0.4,0.7-1.2,0.9-2.2
			c0.2-1.4,0.3-4.7,0.3-10.1l-0.1-11.7l0.1-4.7c0-1.7-0.4-2.9-1.2-3.7c-0.8-0.8-2.6-1.5-5.6-2.2l-0.1-1.6c5-1.2,8.9-3.8,11.6-7.9
			c0.4-0.1,0.7-0.2,0.9-0.2c0.2,0,0.5,0.1,0.9,0.2l0.1,2.1v10.1l0.1,13.2l-0.2,14l0.1,2.3c0,1.4,0.2,2.2,0.6,2.6
			c0.6,0.6,2.7,1.3,6.1,2.3c0.5,0.1,1,0.3,1.4,0.5v1.4h-0.9c-6.1-0.4-10-0.7-11.7-0.7c-4.2,0-7.5,0.1-10,0.4c-0.4,0-0.7,0-0.9,0
			c-0.3,0-0.5-0.1-0.7-0.3c-0.2-0.2-0.3-0.4-0.3-0.6C111,106.3,111,106,111.2,105.7z M118.5,53.7l6.7-9.7c2-2.9,3.9-4.9,5.8-6.2
			c0.8-0.5,1.7-0.8,2.6-0.8c1,0,1.8,0.3,2.3,0.8c0.6,0.5,0.9,1.2,0.9,1.9c0,0.7-0.3,1.4-0.8,2.2c-0.5,0.8-1.7,1.8-3.6,3.1l-12.8,8.7
			l-0.6,0.1L118.5,53.7z"/>
		<path class="st0" d="M177.9,67.8l0.1-1.6l-0.1-6.4l0.1-12c0-3.3-0.4-5.5-1.1-6.4c-0.7-0.9-2.8-1.8-6.4-2.8
			c-0.3-0.1-0.7-0.2-1.2-0.3v-0.6c0-0.4,0-0.8,0.1-1.2c4.9-0.5,9.2-1.4,12.7-2.6l2.8-0.1c0.1,2.5,0.2,5.2,0.2,8.3l-0.2,20.9
			l0.4,23.6l-0.2,12.5c0,2.6,0.2,4,0.5,4.3c0.7,0.7,2.3,1.1,4.8,1.1c0.5,0,1.2,0,2.1,0.1v1c0,0.3,0,0.5-0.1,0.8
			c-1.1,0.3-2.3,0.5-3.5,0.7l-7.9,1.5c-1.2,0.2-2.1,0.3-2.8,0.3v-5.2c-0.6,0.2-1.6,0.5-2.9,1.1c-5.7,2.4-10.8,3.6-15.6,3.6
			c-2.9,0-5.8-0.9-8.7-2.8c-3-1.9-5.3-4.5-6.8-7.8c-1.6-3.3-2.4-6.7-2.4-10.2c0-3.1,0.5-6.1,1.6-8.9c1.1-2.8,2.4-5.2,4.1-7.1
			c1.1-1.2,2.6-2.5,4.6-3.7c2-1.2,3.6-2,4.9-2.3c3.2-0.8,5.4-1.2,6.5-1.2c4.9,0,8.9,0.7,12.1,2.2C176.7,67.3,177.4,67.6,177.9,67.8z
			 M178,101.4c0.1-2.4,0.2-7.4,0.2-15c0-6.4-0.3-10.5-0.9-12.1c-0.6-1.7-2.1-3.3-4.5-4.8c-2.4-1.5-5.1-2.3-8-2.3
			c-4.1,0-7.7,1.6-10.6,4.8c-2.9,3.2-4.3,8-4.3,14.3c0,5.5,1.6,10,4.7,13.3c3.1,3.3,7,4.9,11.7,4.9c2.7,0,5.1-0.4,7.3-1.1
			C175.8,102.7,177.3,102,178,101.4z"/>
		<path class="st0" d="M238.6,78.6l-21.8,0.2l-4.1,0c-1.7,0-3.4,0.1-5.1,0.2c-0.3,1.1-0.5,1.8-0.5,2.2l0.1,0.5v0.5l-0.1,2.7
			c0,2.2,0.7,4.9,2.1,8.1c1.4,3.2,3.4,5.7,6,7.3c2.6,1.7,5.8,2.6,9.7,2.7c2.1-0.1,3.7-0.4,4.9-0.8c1.2-0.4,3-1.3,5.2-2.8l3.9-3.2
			l0.3,2.2c0,0.3,0,0.5-0.1,0.8c-1.6,2.1-3.7,3.9-6.2,5.4c-2.5,1.6-5,2.7-7.6,3.4c-1.2,0.3-3.3,0.5-6.1,0.5c-2.6,0-5.1-0.5-7.6-1.6
			c-3.7-1.6-6.6-4.2-8.7-7.7c-2.1-3.5-3.2-7.8-3.2-12.8c0-1.6,0.3-3.6,0.9-6.1c0.6-2.5,1.7-5.2,3.2-8c1-1.9,2.3-3.5,3.9-4.7
			c2.2-1.7,4.1-3,5.7-3.6c2.4-1,5.1-1.5,8.2-1.5c3.4,0,6.1,0.6,8.3,1.8c2.9,1.6,5.1,3.7,6.5,6.3c1.4,2.6,2.1,4.9,2.1,7.1V78.6z
			 M208.3,76.6h2.6c1.8,0,7.4-0.3,16.5-0.9c1.4-0.1,2.3-0.2,2.7-0.4c0.7-0.7,1-1.3,1-1.8c0-1.1-0.4-2.4-1.1-3.8
			c-0.7-1.4-1.8-2.5-3.3-3.3c-1.5-0.8-3.3-1.2-5.2-1.2c-4.2,0-7.6,1.6-10.1,4.7C209.3,72.3,208.3,74.5,208.3,76.6z"/>
		<path class="st0" d="M247.6,85.4c0-2.5,0.5-5.1,1.5-7.9c1-2.8,2.6-5.3,4.7-7.6c2.1-2.2,4.3-3.9,6.7-5c3.3-1.5,7.3-2.3,12.1-2.3
			c6.8,0,12.4,2.3,17,7c4.5,4.6,6.8,10.2,6.8,16.7c0,5.8-2.4,11-7.1,15.5c-4.8,4.5-10.8,6.8-18.1,6.8c-4.5,0-8.7-1.2-12.7-3.5
			c-3-1.8-5.5-4.4-7.7-7.9C248.6,93.8,247.6,89.9,247.6,85.4z M271.6,106.6c2.8,0,5.4-0.7,8-2.2c2.6-1.5,4.6-3.9,6.1-7.1
			c1.5-3.3,2.3-7.1,2.3-11.4c0-2.8-0.6-6.1-1.8-9.8c-1.2-3.7-3-6.5-5.4-8.4c-2.4-1.9-5.3-2.8-8.6-2.8c-2.4,0-4.8,0.6-7.3,1.7
			c-2.5,1.1-4.6,3.3-6.3,6.5c-1.7,3.2-2.6,7.7-2.6,13.6c0,6.6,1.5,11.6,4.5,15C263.4,104.9,267.1,106.6,271.6,106.6z"/>
		<path class="st0" d="M366.4,40.8c0.4,2.8,0.7,5.7,0.7,8.6c0,0.6,0,1.4-0.1,2.3c-0.5,0.1-0.9,0.2-1.1,0.2c-0.2,0-0.5,0-0.9-0.1
			c-1.5-4.2-4-7.5-7.4-9.8c-3.4-2.3-7.7-3.4-12.8-3.4c-2.7,0-4.9,0.3-6.8,0.9c-3.3,1.1-6.1,2.7-8.6,4.6c-2.5,2-4.5,4.3-6.2,7.1
			c-1.7,2.7-3.1,6-4,9.9c-1,3.9-1.5,7.9-1.5,11.9c0,7.8,1.2,14.2,3.5,19.2c2.4,5.1,5.6,8.7,9.7,10.8c4.1,2.2,8.2,3.2,12.4,3.2
			l2.6-0.1c2.9-0.4,4.9-0.7,5.9-1c2.6-0.8,4.8-1.7,6.5-2.7c1.7-1,3.4-2.5,5.1-4.4c1.6-1.9,3.1-4.1,4.2-6.6l0.7-0.2
			c0.2,0,0.5,0.1,0.8,0.3c0,0.9-0.1,1.4-0.1,1.7c-1.5,6.1-2.6,10.3-3.3,12.6c-0.6,0.1-1.3,0.4-2.2,0.7c-4.2,1.4-9.9,2.2-17,2.2
			c-5.7,0-10-0.4-12.8-1.2c-2.8-0.8-5.9-2-9.3-3.6c-3.4-1.6-6.3-3.8-8.8-6.5c-2.5-2.7-4.6-6.1-6.1-10.3c-1.6-4.1-2.3-8.7-2.3-13.6
			c0-4.6,0.6-8.7,1.8-12.1c1.2-3.5,3.1-7,5.7-10.5c2.6-3.5,5.6-6.5,9.1-8.9c3.5-2.4,7.4-4,11.7-5c3-0.7,7.3-1,12.8-1
			c4,0,7.8,0.5,11.4,1.6C362.8,38.7,365.2,39.7,366.4,40.8z"/>
		<path class="st0" d="M376.5,105.9c4.2-0.8,6.7-1.3,7.3-1.7c0.4-0.3,0.6-0.8,0.6-1.7l-0.1-3.6l0.1-6.4l-0.1-16.2l0.1-6V66l0.2-5.3
			c0-8.3-0.1-13.2-0.2-14.8c-0.2-1.6-0.5-2.6-1-3c-0.9-0.8-3.3-1.7-7.2-2.6V40c0-0.3,0-0.6,0.1-1.1c0.5-0.1,1-0.2,1.5-0.3
			c0.5-0.1,0.9-0.2,1.4-0.2c4.3-1.2,7.4-2.4,9.4-3.6h2.7c0.1,1,0.1,4.2,0.1,9.6l-0.1,6.9l0.1,8.9l-0.2,11c0,0.7,0,1.4,0.1,2.2
			c2.3-2.6,4-4.4,5-5.3c1.9-1.5,3.9-2.7,6-3.6c2.1-0.9,4.4-1.3,6.7-1.3c4.5,0,8.1,1.9,10.9,5.6c1.6,2.2,2.4,5.3,2.4,9.4l-0.2,5.5
			l0.1,3.1l-0.2,5.4c-0.1,4.5-0.2,7.1-0.2,7.9c0,0.9,0,2.2,0.1,3.8l3.1,0.7c2.1,0.4,3.7,0.8,4.8,1.2l-0.1,1.7l-11.6-0.3
			c-0.7,0-2.4,0.1-5.3,0.2c-1.8,0.1-2.8,0.1-3.1,0.1h-1.2c-0.2-0.3-0.3-0.6-0.3-0.8v-0.5c0.5-0.7,1.4-1.1,2.8-1.3l3.3-0.8
			c0.4-0.4,0.7-0.7,0.8-1.1c0.1-0.9,0.3-5.6,0.5-14l0.1-4c0.1-4.2-0.2-7.7-1-10.5c-0.5-1.9-1.7-3.4-3.5-4.6
			c-1.8-1.1-3.9-1.7-6.2-1.7c-2,0-3.8,0.4-5.6,1.2c-1.2,0.6-2.6,1.7-4.3,3.2s-2.8,2.8-3.5,3.9c-0.4,0.7-0.7,1.9-0.7,3.6l0.1,3.8
			l-0.1,4c0,0.3,0.1,2.6,0.2,6.8l-0.1,3.5l0.1,3.8c0,0.5,0.1,0.9,0.2,1.2l7.7,1.8c0.4,0.1,1,0.3,1.8,0.7l0.2,0.6
			c0,0.2-0.1,0.5-0.3,0.9c-1.1,0-1.8,0.1-2.4,0.1l-4.2-0.1l-9.3,0.1l-7,0.2c-0.4,0-0.9-0.1-1.6-0.1l-0.1-0.4
			C376.1,106.7,376.2,106.3,376.5,105.9z"/>
		<path class="st0" d="M475.9,78.6l-21.8,0.2l-4.1,0c-1.7,0-3.4,0.1-5.1,0.2c-0.3,1.1-0.5,1.8-0.5,2.2l0.1,0.5v0.5l-0.1,2.7
			c0,2.2,0.7,4.9,2.1,8.1c1.4,3.2,3.4,5.7,6,7.3c2.6,1.7,5.8,2.6,9.7,2.7c2.1-0.1,3.7-0.4,4.9-0.8c1.2-0.4,3-1.3,5.2-2.8l3.9-3.2
			l0.3,2.2c0,0.3,0,0.5-0.1,0.8c-1.6,2.1-3.7,3.9-6.2,5.4c-2.5,1.6-5,2.7-7.6,3.4c-1.2,0.3-3.3,0.5-6.1,0.5c-2.6,0-5.1-0.5-7.6-1.6
			c-3.7-1.6-6.6-4.2-8.7-7.7c-2.1-3.5-3.2-7.8-3.2-12.8c0-1.6,0.3-3.6,0.9-6.1c0.6-2.5,1.7-5.2,3.2-8c1-1.9,2.3-3.5,3.9-4.7
			c2.2-1.7,4.1-3,5.7-3.6c2.4-1,5.1-1.5,8.2-1.5c3.4,0,6.1,0.6,8.3,1.8c2.9,1.6,5.1,3.7,6.5,6.3c1.4,2.6,2.1,4.9,2.1,7.1V78.6z
			 M445.5,76.6h2.6c1.8,0,7.4-0.3,16.5-0.9c1.4-0.1,2.3-0.2,2.7-0.4c0.7-0.7,1-1.3,1-1.8c0-1.1-0.4-2.4-1.1-3.8
			c-0.7-1.4-1.8-2.5-3.3-3.3c-1.5-0.8-3.3-1.2-5.2-1.2c-4.2,0-7.6,1.6-10.1,4.7C446.5,72.3,445.5,74.5,445.5,76.6z"/>
		<path class="st0" d="M524.3,97.3l0.1,3.5c-2.8,3-5.6,5.1-8.4,6.3c-2.8,1.2-6,1.8-9.7,1.8c-4.1,0-7.7-1.1-11-3.2
			c-3.3-2.1-5.8-5.1-7.5-9c-1.8-3.9-2.6-7.7-2.6-11.4c0-4.1,1.1-8,3.2-11.6c2.1-3.6,4.9-6.4,8.4-8.1c3.5-1.8,7.9-2.7,13.2-2.7
			c5.1,0,8.9,0.9,11.6,2.6c1.5,1,2.2,2.3,2.2,3.9c0,1.2-0.4,2.1-1.1,2.9c-0.8,0.8-1.7,1.1-2.9,1.1c-1.8,0-3.8-1.1-6-3.4
			c-1.3-1.4-2.6-2.3-3.6-2.9c-1.1-0.5-2.3-0.8-3.6-0.8c-3.2,0-5.9,1.3-8,4c-3,3.8-4.5,8.5-4.5,14.2c0,5.9,1.5,10.5,4.6,14
			c3,3.5,6.6,5.2,10.6,5.2c2.8,0,5.3-0.5,7.5-1.4C518.8,101.5,521.3,99.8,524.3,97.3z"/>
		<path class="st0" d="M530.3,107.2l-0.1-1.6c0.3-0.2,0.6-0.4,0.8-0.4c0.3-0.1,1.2-0.1,2.7-0.2s2.6-0.5,3-1.1
			c0.4-0.6,0.6-3.1,0.6-7.4l0.1-21.4l-0.1-3.8c0-0.3,0-1.5,0.1-3.6c0.1-1,0.1-2.2,0.1-3.5l-0.2-9.4l0.1-8.3c0-2-0.3-3.3-0.8-3.8
			c-0.6-0.6-2.5-1.1-5.9-1.5v-0.7c0-0.2,0-0.5,0.1-0.9c2.1-0.4,3.9-1,5.5-1.6c0.8-0.4,3-1.5,6.4-3.4h1.7c0,0.8-0.1,1.3-0.1,1.5v4.7
			l-0.1,2.3l0.2,4.3l-0.1,6.5l0.1,10.8l-0.2,13.4V82c0,0.5,0,1.2,0.1,2.1l0.6,0.1c1.2,0,2.5-0.5,3.7-1.4c5.7-4.1,9.3-6.8,10.7-8.3
			c1.4-1.5,2.2-2.5,2.2-3.2c0-0.4-0.2-0.9-0.7-1.5c-1.1-0.6-2.3-1-3.6-1.2c-0.4-0.1-0.8-0.2-1.3-0.3c-0.7-0.2-1.2-0.3-1.6-0.4
			l-0.1-0.5c0-0.3,0.1-0.6,0.3-1.1c5.7-0.2,10.7-0.3,14.9-0.3c2.4,0,4.9,0.1,7.7,0.2v0.7c0,0.3-0.1,0.6-0.3,1
			c-0.5,0.1-1.4,0.3-2.6,0.5c-2.2,0.4-3.9,0.9-5.1,1.5c-2.8,1.5-5.7,3.6-8.6,6.2c-1.8,1.6-3.3,2.9-4.6,4l-2,1.7
			c0.1,0.3,0.4,0.6,0.7,0.9c0.1,0.1,0.4,0.5,0.9,1c0.4,0.5,1.2,1.4,2.3,2.6c3.9,4.1,6.8,7.3,8.7,9.6c0.6,0.7,1.3,1.5,2.1,2.4
			c2.8,3.2,4.5,4.9,4.9,5.3c1,0.7,2.5,1.2,4.5,1.5c0.9,0.2,1.8,0.3,2.4,0.5c0.1,0.4,0.2,0.8,0.2,1l-0.1,0.5
			c-2.6-0.2-4.4-0.3-5.5-0.3h-1l-15.1,0.4c-0.6,0.1-1,0.1-1.2,0.1c-0.4,0-0.7-0.1-1.1-0.2c-0.1-0.3-0.2-0.5-0.2-0.8V106
			c0.2-0.3,0.4-0.5,0.6-0.6c3.6-0.3,5.6-0.5,6.2-0.7c0.3-0.1,0.6-0.3,0.9-0.6c0-0.6-0.5-1.6-1.6-3c-1-1.4-3.7-4.4-7.9-9.1
			c-2.7-3-4.4-4.7-5.2-5.2c-0.8-0.5-1.9-0.7-3.2-0.7h-2.1c-0.1,1.3-0.2,4.3-0.2,8.9c0,4.3,0.4,7.1,1.1,8.3c0.4,0.7,1.3,1.1,2.8,1.3
			c1.5,0.2,2.4,0.5,2.9,0.8c0.3,0.2,0.5,0.7,0.5,1.5c-2.2,0-4-0.1-5.5-0.1c-2.4,0-5,0.1-7.8,0.2c-1.7,0.1-3,0.1-4,0.1
			C533.2,107.3,532,107.2,530.3,107.2z"/>
		<path class="st0" d="M622.8,78.6L601,78.7l-4.1,0c-1.7,0-3.4,0.1-5.1,0.2c-0.3,1.1-0.5,1.8-0.5,2.2l0.1,0.5v0.5l-0.1,2.7
			c0,2.2,0.7,4.9,2.1,8.1c1.4,3.2,3.4,5.7,6,7.3c2.6,1.7,5.8,2.6,9.7,2.7c2.1-0.1,3.7-0.4,4.9-0.8c1.2-0.4,3-1.3,5.2-2.8l3.9-3.2
			l0.3,2.2c0,0.3,0,0.5-0.1,0.8c-1.6,2.1-3.7,3.9-6.2,5.4c-2.5,1.6-5,2.7-7.6,3.4c-1.2,0.3-3.3,0.5-6.1,0.5c-2.6,0-5.1-0.5-7.6-1.6
			c-3.7-1.6-6.6-4.2-8.7-7.7c-2.1-3.5-3.2-7.8-3.2-12.8c0-1.6,0.3-3.6,0.9-6.1c0.6-2.5,1.7-5.2,3.2-8c1-1.9,2.3-3.5,3.9-4.7
			c2.2-1.7,4.1-3,5.7-3.6c2.4-1,5.1-1.5,8.2-1.5c3.4,0,6.1,0.6,8.3,1.8c2.9,1.6,5.1,3.7,6.5,6.3c1.4,2.6,2.1,4.9,2.1,7.1V78.6z
			 M592.5,76.6h2.6c1.8,0,7.4-0.3,16.5-0.9c1.4-0.1,2.3-0.2,2.7-0.4c0.7-0.7,1-1.3,1-1.8c0-1.1-0.4-2.4-1.1-3.8
			c-0.7-1.4-1.8-2.5-3.3-3.3c-1.5-0.8-3.3-1.2-5.2-1.2c-4.2,0-7.6,1.6-10.1,4.7C593.4,72.3,592.5,74.5,592.5,76.6z"/>
		<path class="st0" d="M630,107.4l-0.2-0.7c0-0.3,0.2-0.6,0.5-1.1l3.2-0.7l4.5-0.8c0.4-0.2,0.6-0.4,0.8-0.8c0.2-0.5,0.3-1.9,0.3-4.2
			c0-12.3-0.1-19.4-0.2-21.3c-0.1-1.9-0.5-3.1-1-3.6c-0.5-0.5-1.8-0.9-3.9-1.2c-1.2-0.2-2.2-0.4-2.9-0.7l0.2-1.7
			c3.8-1.6,6.4-2.9,7.7-4c1.8-1.6,3.4-3.8,4.6-6.4l1.8,0.1c0.2,1.8,0.3,5.8,0.3,12.1l-0.1,0.9c0,0.2,0,0.6,0.1,1
			c1.4-2.5,3.1-4.8,5.2-6.9l1.2-1.2c0.5-0.6,1-1,1.5-1.4c2.5-1.5,4.4-2.3,5.7-2.3c1.6,0,2.9,0.5,3.9,1.6c1,1.1,1.5,2.4,1.5,3.9
			c0,1.2-0.4,2.2-1.1,2.9c-1,0.9-2.1,1.4-3.4,1.4c-0.6,0-1.7-0.3-3.4-0.9c-1.7-0.6-2.8-0.9-3.4-0.9c-1,0-1.7,0.2-2.1,0.5
			c-1,0.8-2.2,2.4-3.7,4.9c-1.1,1.8-1.7,3.5-1.7,5.1l0.3,9l0.1,10.8c0.1,1.2,0.3,2,0.4,2.4c0.1,0.3,0.5,0.6,1.1,0.9
			c3.9,0.3,6.2,0.6,7,0.7c0.5,0,0.9,0.1,1.1,0.1c1.6,0,2.6,0.3,3.3,0.7c0.3,0.2,0.5,0.5,0.5,0.8c0,0.2-0.1,0.5-0.4,0.9l-6-0.1
			L651,107l-3.3,0.1h-5.5l-3,0.2L630,107.4z"/>
	</g>
</g>
</svg>
