<?xml version="1.0" encoding="utf-8"?>
<!-- Generator: Adobe Illustrator 19.1.0, SVG Export Plug-In . SVG Version: 6.00 Build 0)  -->
<svg version="1.1" id="Capa_1" xmlns="http://www.w3.org/2000/svg" xmlns:xlink="http://www.w3.org/1999/xlink" x="0px" y="0px"
	 viewBox="0 0 240.3 39" style="enable-background:new 0 0 240.3 39;" xml:space="preserve">
<style type="text/css">
	.st0{fill:#3C5B99;}
	.st1{fill:#419CD6;}
	.st2{fill:#067BBA;}
	.st3{fill:#F1F2F2;}
	.st4{fill:none;stroke:#067BBA;stroke-linecap:round;stroke-linejoin:round;stroke-miterlimit:10;}
</style>
<g>
	<g>
		<g>
			<path class="st0" d="M1018,195.5c-8.3,0-15,6.7-15,15c0,8.3,6.7,15,15,15c8.3,0,15-6.7,15-15C1033,202.2,1026.3,195.5,1018,195.5
				L1018,195.5z M1021.7,211h-2.4v8.7h-3.6V211h-1.7v-3.1h1.7v-2c0-1.4,0.7-3.6,3.6-3.6l2.7,0v3h-1.9c-0.3,0-0.8,0.2-0.8,0.8v1.8
				h2.8L1021.7,211z M1021.7,211"/>
		</g>
		<g>
			<path class="st1" d="M1058.7,195.5c-8.3,0-15,6.7-15,15c0,8.3,6.7,15,15,15c8.3,0,15-6.7,15-15
				C1073.7,202.2,1067,195.5,1058.7,195.5L1058.7,195.5z M1066.1,207.1l0,0.5c0,4.9-3.7,10.5-10.5,10.5c-2.1,0-4-0.6-5.7-1.7
				c0.3,0,0.6,0.1,0.9,0.1c1.7,0,3.3-0.6,4.6-1.6c-1.6,0-3-1.1-3.4-2.6c0.2,0,0.5,0.1,0.7,0.1c0.3,0,0.7,0,1-0.1
				c-1.7-0.3-3-1.8-3-3.6v0c0.5,0.3,1.1,0.4,1.7,0.5c-1-0.7-1.6-1.8-1.6-3.1c0-0.7,0.2-1.3,0.5-1.9c1.8,2.2,4.5,3.7,7.6,3.9
				c-0.1-0.3-0.1-0.6-0.1-0.8c0-2,1.6-3.7,3.7-3.7c1.1,0,2,0.4,2.7,1.2c0.8-0.2,1.6-0.5,2.3-0.9c-0.3,0.9-0.9,1.6-1.6,2
				c0.7-0.1,1.5-0.3,2.1-0.6C1067.5,206,1066.9,206.6,1066.1,207.1L1066.1,207.1z M1066.1,207.1"/>
		</g>
	</g>
	<g>
		<path class="st2" d="M1113.8,210.5c0,8.3-6.7,15-15,15s-15-6.7-15-15s6.7-15,15-15S1113.8,202.2,1113.8,210.5L1113.8,210.5z
			 M1113.8,210.5"/>
		<path class="st3" d="M1107.8,211.7v6.2h-3.6v-5.8c0-1.4-0.5-2.4-1.8-2.4c-1,0-1.6,0.7-1.8,1.3c-0.1,0.2-0.1,0.5-0.1,0.9v6h-3.6
			c0,0,0-9.8,0-10.8h3.6v1.5c0,0,0,0,0,0h0v0c0.5-0.7,1.3-1.8,3.2-1.8C1106,206.8,1107.8,208.4,1107.8,211.7L1107.8,211.7z
			 M1093.1,201.9c-1.2,0-2,0.8-2,1.9c0,1,0.8,1.9,2,1.9h0c1.3,0,2-0.8,2-1.9C1095.1,202.7,1094.3,201.9,1093.1,201.9L1093.1,201.9z
			 M1091.3,217.9h3.6v-10.8h-3.6V217.9z M1091.3,217.9"/>
	</g>
	<g>
		<g>
			<path class="st4" d="M1138.9,195.5c-8.3,0-15,6.7-15,15c0,8.3,6.7,15,15,15c8.3,0,15-6.7,15-15
				C1153.9,202.2,1147.2,195.5,1138.9,195.5L1138.9,195.5z M1147.8,205.3h-17.8 M1147.9,214.1L1147.9,214.1c0,0.9-0.7,1.6-1.6,1.6
				h-14.8c-0.9,0-1.6-0.7-1.6-1.6v-8.5c0-0.1,0-0.2,0-0.3l8.5,5.3c0,0,0,0,0,0c0,0,0,0,0,0c0.1,0,0.1,0.1,0.2,0.1c0,0,0,0,0,0
				c0.1,0,0.1,0,0.2,0h0c0.1,0,0.1,0,0.2,0c0,0,0,0,0,0c0.1,0,0.1,0,0.2-0.1c0,0,0,0,0,0c0,0,0,0,0,0l4.1-2.6l4.3-2.7
				c0,0.1,0,0.2,0,0.3V214.1z M1147.9,215.1"/>
		</g>
	</g>
	<g>
		<path class="st2" d="M1179.1,195.5c-8.3,0-15,6.7-15,15c0,8.3,6.7,15,15,15s15-6.7,15-15C1194.1,202.2,1187.3,195.5,1179.1,195.5
			L1179.1,195.5z M1179.1,224.5c-7.7,0-14-6.3-14-14c0-7.7,6.3-14,14-14c7.7,0,14,6.3,14,14C1193.1,218.2,1186.8,224.5,1179.1,224.5
			L1179.1,224.5z M1179.1,224.5"/>
		<path class="st2" d="M1183.6,205.5c1.7,0,3-1.3,3-3c0-1.7-1.3-3-3-3c-1.6,0-2.9,1.2-3,2.7l-7,5.2c-0.4-0.2-0.9-0.4-1.5-0.4
			c-1.7,0-3,1.3-3,3c0,1.7,1.3,3,3,3c0.5,0,1-0.1,1.5-0.4l7,5.2c0.1,1.5,1.4,2.7,3,2.7c1.7,0,3-1.3,3-3c0-1.7-1.3-3-3-3
			c-1.3,0-2.5,0.9-2.9,2.1l-6.4-4.7c0.4-0.5,0.7-1.2,0.7-2c0-0.7-0.3-1.4-0.7-1.9l6.4-4.7C1181.1,204.6,1182.2,205.5,1183.6,205.5
			L1183.6,205.5z M1183.6,200.5c1.1,0,2,0.9,2,2c0,1.1-0.9,2-2,2c-1.1,0-2-0.9-2-2C1181.6,201.4,1182.5,200.5,1183.6,200.5
			L1183.6,200.5z M1170.1,210c0-1.1,0.9-2,2-2c1.1,0,2,0.9,2,2c0,1.1-0.9,2-2,2C1171,212,1170.1,211.1,1170.1,210L1170.1,210z
			 M1183.6,215.5c1.1,0,2,0.9,2,2c0,1.1-0.9,2-2,2c-1.1,0-2-0.9-2-2C1181.6,216.4,1182.5,215.5,1183.6,215.5L1183.6,215.5z
			 M1183.6,215.5"/>
	</g>
</g>
<g>
	<g>
		<g>
			<path class="st0" d="M39.6,4.5c-8.3,0-15,6.7-15,15c0,8.3,6.7,15,15,15c8.3,0,15-6.7,15-15C54.6,11.2,47.9,4.5,39.6,4.5L39.6,4.5
				z M43.4,20h-2.4v8.7h-3.6V20h-1.7V17h1.7v-2c0-1.4,0.7-3.6,3.6-3.6l2.7,0v3h-1.9c-0.3,0-0.8,0.2-0.8,0.8V17h2.8L43.4,20z
				 M43.4,20"/>
		</g>
		<g>
			<path class="st1" d="M80.3,4.5c-8.3,0-15,6.7-15,15c0,8.3,6.7,15,15,15c8.3,0,15-6.7,15-15C95.3,11.2,88.6,4.5,80.3,4.5L80.3,4.5
				z M87.8,16.1l0,0.5c0,4.9-3.7,10.5-10.5,10.5c-2.1,0-4-0.6-5.7-1.7c0.3,0,0.6,0.1,0.9,0.1c1.7,0,3.3-0.6,4.6-1.6
				c-1.6,0-3-1.1-3.4-2.6c0.2,0,0.5,0.1,0.7,0.1c0.3,0,0.7,0,1-0.1c-1.7-0.3-3-1.8-3-3.6v0c0.5,0.3,1.1,0.4,1.7,0.5
				c-1-0.7-1.6-1.8-1.6-3.1c0-0.7,0.2-1.3,0.5-1.9c1.8,2.2,4.5,3.7,7.6,3.9c-0.1-0.3-0.1-0.6-0.1-0.8c0-2,1.6-3.7,3.7-3.7
				c1.1,0,2,0.5,2.7,1.2c0.8-0.2,1.6-0.5,2.3-0.9c-0.3,0.9-0.9,1.6-1.6,2c0.7-0.1,1.5-0.3,2.1-0.6C89.1,15,88.5,15.6,87.8,16.1
				L87.8,16.1z M87.8,16.1"/>
		</g>
	</g>
	<g>
		<path class="st2" d="M135.4,19.5c0,8.3-6.7,15-15,15s-15-6.7-15-15c0-8.3,6.7-15,15-15S135.4,11.2,135.4,19.5L135.4,19.5z
			 M135.4,19.5"/>
		<path class="st3" d="M129.4,20.7v6.2h-3.6v-5.8c0-1.4-0.5-2.4-1.8-2.4c-1,0-1.6,0.7-1.8,1.3c-0.1,0.2-0.1,0.5-0.1,0.9v6h-3.6
			c0,0,0-9.8,0-10.8h3.6v1.5c0,0,0,0,0,0h0v0c0.5-0.7,1.3-1.8,3.2-1.8C127.6,15.9,129.4,17.4,129.4,20.7L129.4,20.7z M114.7,10.9
			c-1.2,0-2,0.8-2,1.9c0,1,0.8,1.9,2,1.9h0c1.3,0,2-0.8,2-1.9C116.7,11.7,115.9,10.9,114.7,10.9L114.7,10.9z M112.9,26.9h3.6V16.1
			h-3.6V26.9z M112.9,26.9"/>
	</g>
	<g>
		<g>
			<path class="st4" d="M160.6,4.5c-8.3,0-15,6.7-15,15c0,8.3,6.7,15,15,15c8.3,0,15-6.7,15-15C175.6,11.2,168.9,4.5,160.6,4.5
				L160.6,4.5z M169.5,14.3h-17.8 M169.6,23.1L169.6,23.1c0,0.9-0.7,1.6-1.6,1.6h-14.8c-0.9,0-1.6-0.7-1.6-1.6v-8.5
				c0-0.1,0-0.2,0-0.3l8.5,5.3c0,0,0,0,0,0c0,0,0,0,0,0c0.1,0,0.1,0.1,0.2,0.1c0,0,0,0,0,0c0.1,0,0.1,0,0.2,0h0c0.1,0,0.1,0,0.2,0
				c0,0,0,0,0,0c0.1,0,0.1,0,0.2-0.1c0,0,0,0,0,0c0,0,0,0,0,0l4.1-2.6l4.3-2.7c0,0.1,0,0.2,0,0.3V23.1z M169.6,24.1"/>
		</g>
	</g>
	<g>
		<path class="st2" d="M200.7,4.5c-8.3,0-15,6.7-15,15c0,8.3,6.7,15,15,15c8.3,0,15-6.7,15-15C215.7,11.2,209,4.5,200.7,4.5
			L200.7,4.5z M200.7,33.5c-7.7,0-14-6.3-14-14c0-7.7,6.3-14,14-14c7.7,0,14,6.3,14,14C214.7,27.2,208.4,33.5,200.7,33.5L200.7,33.5
			z M200.7,33.5"/>
		<path class="st2" d="M205.2,14.5c1.7,0,3-1.3,3-3c0-1.7-1.3-3-3-3c-1.6,0-2.9,1.2-3,2.7l-7,5.2c-0.4-0.2-0.9-0.4-1.5-0.4
			c-1.7,0-3,1.3-3,3c0,1.7,1.3,3,3,3c0.5,0,1-0.1,1.5-0.4l7,5.2c0.1,1.5,1.4,2.7,3,2.7c1.7,0,3-1.3,3-3c0-1.7-1.3-3-3-3
			c-1.3,0-2.5,0.9-2.9,2.1l-6.4-4.7c0.4-0.5,0.7-1.2,0.7-2c0-0.7-0.3-1.4-0.7-1.9l6.4-4.7C202.7,13.6,203.9,14.5,205.2,14.5
			L205.2,14.5z M205.2,9.5c1.1,0,2,0.9,2,2c0,1.1-0.9,2-2,2c-1.1,0-2-0.9-2-2C203.2,10.4,204.1,9.5,205.2,9.5L205.2,9.5z M191.7,19
			c0-1.1,0.9-2,2-2c1.1,0,2,0.9,2,2c0,1.1-0.9,2-2,2C192.6,21,191.7,20.1,191.7,19L191.7,19z M205.2,24.5c1.1,0,2,0.9,2,2
			c0,1.1-0.9,2-2,2c-1.1,0-2-0.9-2-2C203.2,25.4,204.1,24.5,205.2,24.5L205.2,24.5z M205.2,24.5"/>
	</g>
</g>
</svg>
